<mxfile host="app.diagrams.net" modified="2024-03-22T17:43:24.132Z" agent="Mozilla/5.0 (Windows NT 10.0; Win64; x64) AppleWebKit/537.36 (KHTML, like Gecko) Chrome/123.0.0.0 Safari/537.36" etag="WL6JyEyIarRGTYWN1V_H" version="24.0.7" type="device">
  <diagram name="Page-1" id="wJGNGlGLGryh5FVE0DV0">
    <mxGraphModel dx="875" dy="1604" grid="1" gridSize="10" guides="1" tooltips="1" connect="1" arrows="1" fold="1" page="1" pageScale="1" pageWidth="827" pageHeight="1169" math="1" shadow="0">
      <root>
        <mxCell id="0" />
        <mxCell id="1" parent="0" />
        <mxCell id="Wkk44jnYCchDylwFseUj-5" value="&lt;p style=&quot;line-height: 100%;&quot;&gt;&lt;font style=&quot;font-size: 12px;&quot;&gt;\(\text{Model}\)&lt;/font&gt;&lt;/p&gt;" style="shape=folder;fontStyle=1;spacingTop=10;tabWidth=40;tabHeight=14;tabPosition=left;html=1;whiteSpace=wrap;align=center;verticalAlign=top;fontSize=10;" vertex="1" parent="1">
          <mxGeometry x="220" y="-290" width="460" height="280" as="geometry" />
        </mxCell>
        <mxCell id="Wkk44jnYCchDylwFseUj-6" value="&lt;p style=&quot;line-height: 100%;&quot;&gt;&lt;font style=&quot;font-size: 12px;&quot;&gt;\(\text{Controller}\)&lt;/font&gt;&lt;/p&gt;" style="shape=folder;fontStyle=1;spacingTop=10;tabWidth=40;tabHeight=14;tabPosition=left;html=1;whiteSpace=wrap;align=center;verticalAlign=top;fontSize=10;" vertex="1" parent="1">
          <mxGeometry x="220" y="30" width="450" height="370" as="geometry" />
        </mxCell>
        <mxCell id="Wkk44jnYCchDylwFseUj-21" value="" style="group" vertex="1" connectable="0" parent="1">
          <mxGeometry x="220" y="430" width="450" height="490" as="geometry" />
        </mxCell>
        <mxCell id="Wkk44jnYCchDylwFseUj-2" value="&lt;p style=&quot;line-height: 100%;&quot;&gt;&lt;font style=&quot;font-size: 12px;&quot;&gt;\(\text{View}\)&lt;/font&gt;&lt;/p&gt;" style="shape=folder;fontStyle=1;spacingTop=10;tabWidth=40;tabHeight=14;tabPosition=left;html=1;whiteSpace=wrap;align=center;verticalAlign=top;fontSize=10;" vertex="1" parent="Wkk44jnYCchDylwFseUj-21">
          <mxGeometry width="450" height="490" as="geometry" />
        </mxCell>
        <mxCell id="Wkk44jnYCchDylwFseUj-7" value="&lt;p style=&quot;line-height: 100%;&quot;&gt;&lt;font style=&quot;font-size: 12px;&quot;&gt;\(\text{UI Controls}\)&lt;/font&gt;&lt;/p&gt;" style="shape=folder;fontStyle=1;spacingTop=10;tabWidth=40;tabHeight=14;tabPosition=left;html=1;whiteSpace=wrap;align=center;verticalAlign=middle;fontSize=10;" vertex="1" parent="Wkk44jnYCchDylwFseUj-21">
          <mxGeometry x="155" y="50" width="130" height="80" as="geometry" />
        </mxCell>
        <mxCell id="Wkk44jnYCchDylwFseUj-8" value="&lt;p style=&quot;line-height: 100%;&quot;&gt;&lt;font style=&quot;font-size: 12px;&quot;&gt;\(\text{Icons}\)&lt;/font&gt;&lt;/p&gt;" style="shape=folder;fontStyle=1;spacingTop=10;tabWidth=40;tabHeight=14;tabPosition=left;html=1;whiteSpace=wrap;align=center;verticalAlign=middle;fontSize=10;" vertex="1" parent="Wkk44jnYCchDylwFseUj-21">
          <mxGeometry x="15" y="50" width="130" height="80" as="geometry" />
        </mxCell>
        <mxCell id="Wkk44jnYCchDylwFseUj-9" value="&lt;p style=&quot;line-height: 100%;&quot;&gt;&lt;font style=&quot;font-size: 12px;&quot;&gt;\(\text{State Display}\)&lt;/font&gt;&lt;/p&gt;" style="shape=folder;fontStyle=1;spacingTop=10;tabWidth=40;tabHeight=14;tabPosition=left;html=1;whiteSpace=wrap;align=center;verticalAlign=middle;fontSize=10;" vertex="1" parent="Wkk44jnYCchDylwFseUj-21">
          <mxGeometry x="300" y="50" width="130" height="80" as="geometry" />
        </mxCell>
        <mxCell id="Wkk44jnYCchDylwFseUj-17" value="" style="group" vertex="1" connectable="0" parent="Wkk44jnYCchDylwFseUj-21">
          <mxGeometry x="15" y="230" width="415" height="250" as="geometry" />
        </mxCell>
        <mxCell id="Wkk44jnYCchDylwFseUj-11" value="&lt;p style=&quot;line-height: 100%;&quot;&gt;&lt;font style=&quot;font-size: 12px;&quot;&gt;\(\text{Statistics}\)&lt;/font&gt;&lt;/p&gt;" style="shape=folder;fontStyle=1;spacingTop=10;tabWidth=40;tabHeight=14;tabPosition=left;html=1;whiteSpace=wrap;align=center;verticalAlign=top;fontSize=10;container=0;" vertex="1" parent="Wkk44jnYCchDylwFseUj-17">
          <mxGeometry width="415" height="240" as="geometry" />
        </mxCell>
        <mxCell id="Wkk44jnYCchDylwFseUj-10" value="&lt;p style=&quot;line-height: 100%;&quot;&gt;&lt;font style=&quot;font-size: 12px;&quot;&gt;\(\text{Reward History}\)&lt;/font&gt;&lt;/p&gt;" style="shape=folder;fontStyle=1;spacingTop=10;tabWidth=40;tabHeight=14;tabPosition=left;html=1;whiteSpace=wrap;align=center;verticalAlign=middle;fontSize=10;container=0;" vertex="1" parent="Wkk44jnYCchDylwFseUj-17">
          <mxGeometry x="214.1935483870968" y="50" width="174.03225806451616" height="80" as="geometry" />
        </mxCell>
        <mxCell id="Wkk44jnYCchDylwFseUj-12" value="&lt;p style=&quot;line-height: 100%;&quot;&gt;&lt;font style=&quot;font-size: 12px;&quot;&gt;\(\text{Hyperparameter}\)&lt;/font&gt;&lt;span style=&quot;background-color: initial; font-size: 12px;&quot;&gt;\(\text{Tuning Display}\)&lt;/span&gt;&lt;br&gt;&lt;/p&gt;" style="shape=folder;fontStyle=1;spacingTop=10;tabWidth=40;tabHeight=14;tabPosition=left;html=1;whiteSpace=wrap;align=center;verticalAlign=middle;fontSize=10;container=0;" vertex="1" parent="Wkk44jnYCchDylwFseUj-17">
          <mxGeometry x="26.7741935483871" y="140" width="174.03225806451616" height="80" as="geometry" />
        </mxCell>
        <mxCell id="Wkk44jnYCchDylwFseUj-14" value="&lt;p style=&quot;line-height: 100%;&quot;&gt;&lt;font style=&quot;font-size: 12px;&quot;&gt;\(\text{Hyperparameter}\)&amp;nbsp;&lt;/font&gt;&lt;span style=&quot;background-color: initial;&quot;&gt;&lt;span style=&quot;font-size: 12px;&quot;&gt;\(\text{Search Results}\)&lt;/span&gt;&lt;/span&gt;&lt;/p&gt;" style="shape=folder;fontStyle=1;spacingTop=10;tabWidth=40;tabHeight=14;tabPosition=left;html=1;whiteSpace=wrap;align=center;verticalAlign=middle;fontSize=10;container=0;" vertex="1" parent="Wkk44jnYCchDylwFseUj-17">
          <mxGeometry x="214.1935483870968" y="140" width="174.03225806451616" height="80" as="geometry" />
        </mxCell>
        <mxCell id="Wkk44jnYCchDylwFseUj-15" value="&lt;p style=&quot;line-height: 100%;&quot;&gt;&lt;font style=&quot;font-size: 12px;&quot;&gt;\(\text{Graphing}\)&lt;/font&gt;&lt;/p&gt;" style="shape=folder;fontStyle=1;spacingTop=10;tabWidth=40;tabHeight=14;tabPosition=left;html=1;whiteSpace=wrap;align=center;verticalAlign=middle;fontSize=10;container=0;" vertex="1" parent="Wkk44jnYCchDylwFseUj-17">
          <mxGeometry x="26.7741935483871" y="50" width="174.03225806451616" height="80" as="geometry" />
        </mxCell>
        <mxCell id="Wkk44jnYCchDylwFseUj-18" value="&lt;p style=&quot;line-height: 100%;&quot;&gt;&lt;font style=&quot;font-size: 12px;&quot;&gt;\(\text{Update Publisher}\)&lt;/font&gt;&lt;/p&gt;" style="shape=folder;fontStyle=1;spacingTop=10;tabWidth=40;tabHeight=14;tabPosition=left;html=1;whiteSpace=wrap;align=center;verticalAlign=middle;fontSize=10;" vertex="1" parent="Wkk44jnYCchDylwFseUj-21">
          <mxGeometry x="155" y="140" width="130" height="80" as="geometry" />
        </mxCell>
        <mxCell id="Wkk44jnYCchDylwFseUj-19" value="&lt;p style=&quot;line-height: 100%;&quot;&gt;&lt;font style=&quot;font-size: 12px;&quot;&gt;\(\text{UI Root}\)&lt;/font&gt;&lt;/p&gt;" style="shape=folder;fontStyle=1;spacingTop=10;tabWidth=40;tabHeight=14;tabPosition=left;html=1;whiteSpace=wrap;align=center;verticalAlign=middle;fontSize=10;" vertex="1" parent="Wkk44jnYCchDylwFseUj-21">
          <mxGeometry x="15" y="140" width="130" height="80" as="geometry" />
        </mxCell>
        <mxCell id="Wkk44jnYCchDylwFseUj-20" value="&lt;p style=&quot;line-height: 100%;&quot;&gt;&lt;font style=&quot;font-size: 12px;&quot;&gt;\(\ldots\)&lt;/font&gt;&lt;/p&gt;" style="shape=folder;fontStyle=1;spacingTop=10;tabWidth=40;tabHeight=14;tabPosition=left;html=1;whiteSpace=wrap;align=center;verticalAlign=middle;fontSize=10;" vertex="1" parent="Wkk44jnYCchDylwFseUj-21">
          <mxGeometry x="300" y="140" width="130" height="80" as="geometry" />
        </mxCell>
        <mxCell id="Wkk44jnYCchDylwFseUj-31" value="" style="group" vertex="1" connectable="0" parent="1">
          <mxGeometry x="235" y="70" width="415" height="150" as="geometry" />
        </mxCell>
        <mxCell id="Wkk44jnYCchDylwFseUj-22" value="&lt;p style=&quot;line-height: 100%;&quot;&gt;&lt;font style=&quot;font-size: 12px;&quot;&gt;\(\text{Main Simulation Controller}\)&lt;/font&gt;&lt;/p&gt;" style="shape=folder;fontStyle=1;spacingTop=10;tabWidth=40;tabHeight=14;tabPosition=left;html=1;whiteSpace=wrap;align=center;verticalAlign=top;fontSize=10;" vertex="1" parent="Wkk44jnYCchDylwFseUj-31">
          <mxGeometry width="415" height="150" as="geometry" />
        </mxCell>
        <mxCell id="Wkk44jnYCchDylwFseUj-28" value="&lt;p style=&quot;line-height: 100%;&quot;&gt;&lt;span style=&quot;font-size: 12px;&quot;&gt;\(\text{Controller}\)&lt;/span&gt;&lt;br&gt;&lt;/p&gt;" style="shape=folder;fontStyle=1;spacingTop=10;tabWidth=40;tabHeight=14;tabPosition=left;html=1;whiteSpace=wrap;align=center;verticalAlign=middle;fontSize=10;" vertex="1" parent="Wkk44jnYCchDylwFseUj-31">
          <mxGeometry x="147.55555555555554" y="50" width="119.88888888888889" height="80" as="geometry" />
        </mxCell>
        <mxCell id="Wkk44jnYCchDylwFseUj-29" value="&lt;p style=&quot;line-height: 100%;&quot;&gt;&lt;span style=&quot;font-size: 12px;&quot;&gt;\(\text{Request Bridge}\)&lt;/span&gt;&lt;br&gt;&lt;/p&gt;" style="shape=folder;fontStyle=1;spacingTop=10;tabWidth=40;tabHeight=14;tabPosition=left;html=1;whiteSpace=wrap;align=center;verticalAlign=middle;fontSize=10;" vertex="1" parent="Wkk44jnYCchDylwFseUj-31">
          <mxGeometry x="18.444444444444443" y="50" width="119.88888888888889" height="80" as="geometry" />
        </mxCell>
        <mxCell id="Wkk44jnYCchDylwFseUj-30" value="&lt;p style=&quot;line-height: 100%;&quot;&gt;&lt;span style=&quot;font-size: 12px;&quot;&gt;\(\text{Update Bridge}\)&lt;/span&gt;&lt;br&gt;&lt;/p&gt;" style="shape=folder;fontStyle=1;spacingTop=10;tabWidth=40;tabHeight=14;tabPosition=left;html=1;whiteSpace=wrap;align=center;verticalAlign=middle;fontSize=10;" vertex="1" parent="Wkk44jnYCchDylwFseUj-31">
          <mxGeometry x="276.66666666666663" y="50" width="119.88888888888889" height="80" as="geometry" />
        </mxCell>
        <mxCell id="Wkk44jnYCchDylwFseUj-32" value="" style="group" vertex="1" connectable="0" parent="1">
          <mxGeometry x="240" y="230" width="410" height="150" as="geometry" />
        </mxCell>
        <mxCell id="Wkk44jnYCchDylwFseUj-23" value="&lt;p style=&quot;line-height: 100%;&quot;&gt;&lt;font style=&quot;font-size: 12px;&quot;&gt;\(\text{Hyperparameter Controller}\)&lt;/font&gt;&lt;/p&gt;" style="shape=folder;fontStyle=1;spacingTop=10;tabWidth=40;tabHeight=14;tabPosition=left;html=1;whiteSpace=wrap;align=center;verticalAlign=top;fontSize=10;" vertex="1" parent="Wkk44jnYCchDylwFseUj-32">
          <mxGeometry width="410" height="150" as="geometry" />
        </mxCell>
        <mxCell id="Wkk44jnYCchDylwFseUj-24" value="&lt;p style=&quot;line-height: 100%;&quot;&gt;&lt;span style=&quot;font-size: 12px;&quot;&gt;\(\text{Controller}\)&lt;/span&gt;&lt;br&gt;&lt;/p&gt;" style="shape=folder;fontStyle=1;spacingTop=10;tabWidth=40;tabHeight=14;tabPosition=left;html=1;whiteSpace=wrap;align=center;verticalAlign=middle;fontSize=10;" vertex="1" parent="Wkk44jnYCchDylwFseUj-32">
          <mxGeometry x="145.7777777777778" y="50" width="118.44444444444444" height="80" as="geometry" />
        </mxCell>
        <mxCell id="Wkk44jnYCchDylwFseUj-25" value="&lt;p style=&quot;line-height: 100%;&quot;&gt;&lt;span style=&quot;font-size: 12px;&quot;&gt;\(\text{Request Bridge}\)&lt;/span&gt;&lt;br&gt;&lt;/p&gt;" style="shape=folder;fontStyle=1;spacingTop=10;tabWidth=40;tabHeight=14;tabPosition=left;html=1;whiteSpace=wrap;align=center;verticalAlign=middle;fontSize=10;" vertex="1" parent="Wkk44jnYCchDylwFseUj-32">
          <mxGeometry x="18.222222222222225" y="50" width="118.44444444444444" height="80" as="geometry" />
        </mxCell>
        <mxCell id="Wkk44jnYCchDylwFseUj-26" value="&lt;p style=&quot;line-height: 100%;&quot;&gt;&lt;span style=&quot;font-size: 12px;&quot;&gt;\(\text{Update Bridge}\)&lt;/span&gt;&lt;br&gt;&lt;/p&gt;" style="shape=folder;fontStyle=1;spacingTop=10;tabWidth=40;tabHeight=14;tabPosition=left;html=1;whiteSpace=wrap;align=center;verticalAlign=middle;fontSize=10;" vertex="1" parent="Wkk44jnYCchDylwFseUj-32">
          <mxGeometry x="273.3333333333333" y="50" width="118.44444444444444" height="80" as="geometry" />
        </mxCell>
      </root>
    </mxGraphModel>
  </diagram>
</mxfile>
